<?xml version="1.0" standalone="no"?>
<svg version="1.0" xmlns="http://www.w3.org/2000/svg"
 width="190 " height="150" viewBox="0 0 2307.000000 1816.000000"
 preserveAspectRatio="xMidYMid meet">

<g transform="translate(0.000000,1816.000000) scale(0.100000,-0.100000)"
fill="#ff527d" stroke="none">
<path d="M14470 18140 c-261 -13 -413 -35 -1110 -156 -1876 -328 -3047 -557
-4625 -904 -3174 -699 -5863 -1514 -7815 -2367 -333 -145 -403 -185 -538 -302
-130 -113 -250 -293 -315 -478 -60 -167 -71 -412 -27 -593 57 -235 148 -388
359 -600 214 -215 412 -344 655 -425 136 -46 263 -65 431 -65 122 0 167 5 345
40 613 118 1614 416 5205 1550 3702 1169 5353 1664 6760 2024 592 152 1109
265 1488 326 301 49 314 50 523 50 200 0 234 -3 482 -40 491 -74 758 -124
1097 -204 1489 -353 2779 -1100 3950 -2287 405 -411 689 -740 1076 -1249 159
-209 261 -352 471 -665 92 -137 168 -247 168 -244 0 3 -15 50 -34 105 -178
525 -502 1173 -880 1759 -374 581 -842 1159 -1356 1674 -1245 1247 -2783 2179
-4610 2793 -342 115 -556 173 -761 207 -275 46 -641 66 -939 51z"/>
<path d="M11802 12193 c-18 -53 -63 -176 -99 -274 l-66 -179 -516 0 c-570 0
-758 -6 -1281 -46 -602 -45 -1221 -146 -1809 -295 -1224 -311 -2722 -869
-4491 -1672 -354 -161 -893 -417 -908 -431 -2 -2 232 74 520 169 2237 741
4050 1248 5197 1454 159 29 730 99 1021 126 492 45 1319 72 1752 58 l257 -8
-93 -190 c-331 -677 -658 -1120 -926 -1254 -68 -34 -87 -39 -181 -45 -368 -24
-887 -89 -1264 -157 -1114 -203 -2058 -546 -3235 -1177 -488 -261 -1487 -770
-1850 -942 -310 -147 -402 -188 -566 -250 -276 -105 -608 -297 -826 -478 -180
-151 -361 -378 -428 -539 -35 -82 -60 -199 -60 -273 0 -275 196 -587 488 -776
224 -145 539 -256 1087 -384 545 -126 837 -208 1102 -309 352 -134 539 -239
718 -402 790 -720 1533 -1200 2494 -1611 848 -363 1862 -620 2826 -717 165
-17 202 -24 213 -38 32 -44 158 -273 211 -385 152 -318 258 -701 278 -1001 3
-54 10 -100 15 -103 4 -3 8 3 8 13 0 11 7 96 15 190 39 444 37 901 -4 1153
-10 63 -18 116 -17 117 1 1 206 7 456 12 509 12 883 39 1168 85 l84 13 26 -41
c51 -80 191 -383 237 -511 85 -237 132 -452 172 -790 l7 -60 8 65 c54 442 66
1033 27 1300 -6 45 -9 83 -6 86 3 3 88 23 189 44 449 93 771 179 1131 303
l187 65 97 -104 c132 -142 256 -299 353 -446 91 -138 223 -396 274 -538 19
-52 35 -88 35 -80 1 25 -86 450 -119 582 -66 264 -158 536 -229 676 l-31 62
172 86 c384 192 758 420 1031 626 l78 59 107 -57 c391 -209 740 -486 977 -774
43 -52 80 -97 83 -100 3 -3 -30 63 -73 145 -215 412 -497 839 -686 1040 l-48
51 152 143 c349 329 701 725 940 1058 48 67 62 80 80 76 81 -19 250 -72 352
-110 366 -139 703 -345 968 -593 42 -39 77 -69 77 -65 0 11 -221 295 -350 450
-292 350 -557 604 -738 706 -26 15 -40 29 -37 38 3 7 34 59 69 115 35 55 89
146 121 201 56 97 389 739 405 781 8 19 19 22 107 28 347 25 786 103 1128 201
494 142 953 369 1295 641 190 152 425 411 515 569 l29 50 -70 -65 c-316 -300
-763 -495 -1379 -604 -330 -58 -561 -76 -1062 -83 l-423 -6 -95 73 c-53 40
-98 77 -101 81 -2 5 19 18 48 31 105 44 311 149 450 229 670 382 1164 866
1423 1394 66 133 135 311 135 345 0 7 -24 -26 -52 -74 -90 -148 -138 -206
-293 -361 -201 -201 -350 -311 -641 -474 -415 -231 -1032 -442 -1657 -566
l-167 -33 -265 151 c-146 83 -265 154 -265 158 0 3 44 39 97 80 406 309 729
631 968 967 3 4 250 -142 425 -251 228 -142 430 -279 630 -426 45 -33 -203
229 -407 430 -146 144 -314 300 -440 409 l-52 45 54 87 c182 290 327 640 389
936 26 125 47 284 45 354 l-1 43 -19 -65 c-110 -371 -295 -676 -595 -977 -78
-79 -146 -143 -152 -143 -5 0 -59 37 -118 83 -338 259 -721 516 -1109 742 -82
48 -152 89 -154 91 -1 1 15 58 37 126 82 249 121 411 159 658 20 135 26 213
29 430 l4 265 -48 -140 c-90 -262 -185 -459 -328 -682 -57 -89 -225 -316 -286
-386 l-33 -39 -164 77 c-474 222 -1174 492 -1691 654 l-185 58 -6 219 c-4 121
-12 264 -18 319 -16 135 -50 328 -60 338 -5 5 -11 -14 -15 -40 -11 -88 -76
-325 -147 -540 -39 -117 -71 -213 -73 -213 -1 0 -97 22 -212 49 -718 170
-1527 287 -2214 322 -124 6 -226 12 -227 13 0 0 -4 69 -7 151 -19 457 -19 460
-64 328z m304 -1143 c365 -40 857 -109 1244 -176 322 -55 822 -153 833 -163 8
-8 -59 -102 -158 -221 -77 -92 -285 -296 -381 -373 -304 -244 -741 -452 -1109
-528 -132 -27 -188 -28 -365 -5 -74 10 -180 21 -235 26 -55 5 -143 14 -195 19
-52 6 -103 11 -112 11 -16 0 -16 4 -2 48 100 317 174 640 219 957 14 105 45
382 45 411 0 18 3 18 216 -6z m2764 -525 c396 -98 926 -272 1543 -505 70 -26
76 -16 -96 -161 -245 -208 -575 -442 -827 -586 -249 -143 -559 -294 -605 -295
-11 0 -90 20 -175 45 -182 54 -680 187 -793 212 -43 9 -76 19 -74 21 2 3 25
19 50 37 95 68 254 216 345 322 211 245 385 566 473 868 17 60 26 76 38 73 9
-3 63 -17 121 -31z m2625 -949 c307 -144 987 -487 991 -501 5 -15 -251 -203
-486 -358 -253 -166 -481 -298 -753 -435 l-207 -104 -103 45 c-134 60 -387
166 -617 260 -102 41 -200 82 -219 90 l-33 14 93 70 c250 185 514 436 687 651
80 100 210 287 266 384 l27 47 52 -23 c29 -13 165 -76 302 -140z m-9195 -1560
c0 -1 -20 -47 -45 -100 -231 -493 -351 -1052 -331 -1539 31 -759 285 -1439
756 -2025 610 -760 1498 -1235 2495 -1333 155 -15 506 -15 660 0 874 87 1645
448 2245 1051 270 272 473 552 646 895 182 362 283 687 341 1105 22 158 25
621 5 780 -45 357 -146 713 -309 1088 -6 14 254 -74 551 -187 604 -229 1020
-416 1996 -896 546 -269 784 -381 940 -444 l69 -27 -43 -96 c-178 -395 -498
-914 -817 -1324 -421 -541 -951 -1054 -1464 -1419 -857 -609 -1739 -976 -2777
-1155 -582 -101 -1086 -125 -1813 -89 -1475 73 -2732 355 -3792 852 -515 241
-1068 584 -1533 952 -36 28 -121 94 -190 145 -140 105 -450 408 -589 575 -273
328 -444 693 -497 1055 -22 155 -15 413 15 553 20 92 82 297 99 325 5 6 255
133 558 280 505 247 570 276 809 362 532 190 1150 386 1633 520 119 33 249 68
287 79 70 20 95 24 95 17z m2440 -221 c36 -8 112 -39 170 -67 91 -45 118 -64
196 -143 106 -104 159 -188 206 -325 32 -92 33 -99 33 -260 0 -161 -1 -168
-33 -260 -46 -134 -101 -221 -201 -321 -391 -391 -1061 -286 -1309 206 -68
137 -98 304 -82 464 38 360 302 649 656 716 95 18 268 13 364 -10z m-6389
-1351 c-6 -33 -15 -122 -21 -198 -27 -333 40 -709 186 -1053 24 -57 44 -104
44 -107 0 -5 -348 124 -469 174 -192 80 -369 256 -436 434 -59 157 -36 332 64
493 29 46 32 48 332 184 167 76 305 136 307 134 2 -1 -1 -29 -7 -61z"/>
</g>
</svg>